Coordinates
version=1
nRows=49
nColumns=12
inDegrees=yes

Units are S.I. units (second, meters, Newtons, ...)
Angles are in degrees

endheader
time	SC_y	SC_z	SC_x	AC_y	AC_z	AC_x	GH_y	GH_z	GH_yy	EL_x	PS_y
       0.0               -52.9          24.85          52.86           58.5         -9.553          9.549         -38.66          89.81          101.9          137.0          48.95
  0.003698               -52.9          24.85          52.86           58.5         -9.554          9.545         -38.67           89.8          101.9          137.0          48.95
  0.007397               -52.9          24.84          52.86           58.5         -9.556          9.541         -38.67          89.79          101.9          137.0          48.95
    0.0111              -52.89          24.84          52.85           58.5         -9.557          9.537         -38.67          89.78          101.9          137.0          48.95
   0.01479              -52.89          24.84          52.85           58.5         -9.559          9.533         -38.68          89.77          101.9          137.0          48.95
   0.01849              -52.89          24.83          52.84           58.5         -9.561          9.529         -38.69          89.77          101.9          137.0          48.96
   0.02219              -52.88          24.83          52.83           58.5         -9.563          9.524         -38.69          89.76          101.9          136.9          48.96
   0.02589              -52.88          24.82          52.83           58.5         -9.565          9.519          -38.7          89.74          101.9          136.9          48.96
   0.02959              -52.88          24.82          52.82           58.5         -9.567          9.513          -38.7          89.73          101.9          136.9          48.96
   0.03329              -52.87          24.81          52.82          58.49         -9.569          9.507         -38.71          89.72          101.9          136.9          48.97
   0.03698              -52.87          24.81          52.81          58.49         -9.571          9.501         -38.72          89.71          101.9          136.9          48.97
   0.04068              -52.86           24.8           52.8          58.49         -9.574          9.494         -38.73          89.69          101.9          136.8          48.97
   0.04438              -52.86          24.79          52.79          58.49         -9.577          9.487         -38.74          89.68          101.9          136.8          48.97
   0.04808              -52.85          24.79          52.78          58.49          -9.58          9.479         -38.75          89.66          101.9          136.8          48.98
   0.05178              -52.85          24.78          52.77          58.49         -9.583           9.47         -38.76          89.64          101.9          136.8          48.98
   0.05548              -52.84          24.77          52.76          58.49         -9.587          9.461         -38.77          89.62          101.9          136.7          48.99
   0.05918              -52.84          24.76          52.75          58.49         -9.591          9.451         -38.78           89.6          101.9          136.7          48.99
   0.06287              -52.83          24.75          52.74          58.49         -9.595           9.44         -38.79          89.58          101.9          136.7          48.99
   0.06657              -52.82          24.74          52.72          58.49           -9.6          9.428         -38.81          89.55          101.8          136.6           49.0
   0.07027              -52.81          24.73          52.71          58.49         -9.605          9.415         -38.82          89.53          101.8          136.6          49.01
   0.07397               -52.8          24.71          52.69          58.49          -9.61            9.4         -38.84           89.5          101.8          136.5          49.01
   0.07767              -52.79           24.7          52.67          58.49         -9.616          9.384         -38.86          89.46          101.8          136.5          49.02
   0.08137              -52.78          24.68          52.65          58.49         -9.623          9.367         -38.88          89.42          101.8          136.4          49.03
   0.08506              -52.77          24.66          52.63          58.49         -9.631          9.347         -38.91          89.38          101.8          136.4          49.04
   0.08876              -52.75          24.64           52.6          58.49         -9.639          9.326         -38.93          89.34          101.8          136.3          49.05
   0.09246              -52.73          24.62          52.57          58.49         -9.648          9.302         -38.96          89.29          101.7          136.2          49.06
   0.09616              -52.72           24.6          52.54          58.49         -9.659          9.275         -38.99          89.23          101.7          136.1          49.07
   0.09986               -52.7          24.57          52.51          58.49         -9.671          9.244         -39.03          89.17          101.7          136.0          49.08
    0.1036              -52.67          24.53          52.47          58.49         -9.684           9.21         -39.07          89.09          101.7          135.9           49.1
    0.1073              -52.65           24.5          52.42          58.49         -9.699          9.171         -39.12          89.01          101.6          135.8          49.11
     0.111              -52.62          24.46          52.37          58.49         -9.716          9.126         -39.17          88.92          101.6          135.6          49.13
    0.1147              -52.58          24.41          52.31          58.49         -9.736          9.075         -39.24          88.81          101.5          135.4          49.16
    0.1184              -52.54          24.35          52.24          58.48         -9.759          9.016         -39.31          88.69          101.5          135.2          49.18
     0.122               -52.5          24.29          52.16          58.48         -9.785          8.947         -39.39          88.54          101.4          135.0          49.21
    0.1257              -52.44          24.21          52.06          58.48         -9.816          8.867         -39.49          88.37          101.4          134.7          49.25
    0.1294              -52.38          24.13          51.95          58.48         -9.853          8.772          -39.6          88.17          101.3          134.4          49.29
    0.1331               -52.3          24.02          51.82          58.48         -9.896           8.66         -39.74          87.94          101.2          134.0          49.34
    0.1368              -52.21           23.9          51.66          58.47         -9.948          8.525          -39.9          87.65          101.1          133.6           49.4
    0.1405               -52.1          23.74          51.47          58.47         -10.01          8.362          -40.1          87.31          100.9          133.0          49.47
    0.1442              -51.97          23.56          51.24          58.47         -10.09          8.163         -40.35          86.89          100.7          132.4          49.56
    0.1479              -51.81          23.33          50.95          58.46         -10.18          7.917         -40.64          86.37          100.5          131.5          49.67
    0.1516               -51.6          23.04          50.59          58.46          -10.3          7.611         -41.02          85.73          100.3          130.5           49.8
    0.1553              -51.34          22.68          50.14          58.45         -10.45          7.224         -41.49          84.92          99.92          129.2          49.97
     0.159              -51.01          22.22          49.56          58.44         -10.64          6.733         -42.08          83.88          99.49          127.6          50.19
    0.1627              -50.59          21.64          48.82          58.42         -10.88          6.105         -42.85          82.56          98.94          125.5          50.46
    0.1664              -50.05          20.88          47.87          58.41         -11.19          5.298         -43.83          80.86          98.24          122.7          50.82
    0.1701              -49.36          19.92          46.67          58.39         -11.59          4.268         -45.08          78.69          97.34          119.3          51.27
    0.1738              -48.49          18.71          45.15          58.36         -12.09          2.973         -46.65          75.97          96.21          114.9          51.84
    0.1775              -47.43          17.24          43.29          58.33          -12.7          1.395         -48.57          72.65          94.83          109.6          52.54
